<?xml version="1.0" encoding="UTF-8" standalone="no"?>
<svg xmlns:dc="http://purl.org/dc/elements/1.1/" xmlns:cc="http://creativecommons.org/ns#" xmlns:rdf="http://www.w3.org/1999/02/22-rdf-syntax-ns#" xmlns:svg="http://www.w3.org/2000/svg" xmlns="http://www.w3.org/2000/svg" xmlns:sodipodi="http://sodipodi.sourceforge.net/DTD/sodipodi-0.dtd" xmlns:inkscape="http://www.inkscape.org/namespaces/inkscape" inkscape:version="1.0 (4035a4fb49, 2020-05-01)" sodipodi:docname="Reagan_Bush_'84.svg" version="1.1" viewBox="0 0 887.46 445.23" data-name="Layer 1" id="Layer_1">
  <metadata id="metadata47">
    <rdf:RDF>
      <cc:Work rdf:about="">
        <dc:format>image/svg+xml</dc:format>
        <dc:type rdf:resource="http://purl.org/dc/dcmitype/StillImage"/>
      </cc:Work>
    </rdf:RDF>
  </metadata>
  <sodipodi:namedview inkscape:current-layer="Layer_1" inkscape:window-maximized="1" inkscape:window-y="-8" inkscape:window-x="-8" inkscape:cy="399.23359" inkscape:cx="1191.6228" inkscape:zoom="0.2278976" showgrid="false" id="namedview45" inkscape:window-height="705" inkscape:window-width="1366" inkscape:pageshadow="2" inkscape:pageopacity="0" guidetolerance="10" gridtolerance="10" objecttolerance="10" borderopacity="1" bordercolor="#666666" pagecolor="#ffffff"/>
  <defs id="defs12">
    <style id="style10">.cls-1{fill:#294289;}.cls-2{fill:#d31918;}</style>
  </defs>
  <title id="title14">Reagan Bush &amp;apos;84</title>
  <path id="path16" d="M158.39,97.71c7.91,6.56,10.1,16,13.85,24.44,6.36,14.37,12.32,28.92,18.53,43.35,1.18,2.74,2.84,5.27,4.11,8,4,8.62,11.62,12.13,20.3,12.35,4.69.12,9.83-1.88,14-4.24,2-1.14,3.16-5.26,3.34-8.11.46-7.09.15-14.24.15-21.36q0-51.55,0-103.11c0-8.13-.7-9.09-8.49-11.87a14.49,14.49,0,0,1-4.13-1.69c-1.21-1-2.83-2.58-2.69-3.72a4.88,4.88,0,0,1,3.33-3.2A66.39,66.39,0,0,1,231.5,28c23.73.08,47.47.25,71.2.31,5.37,0,10.74-.39,16.11-.43,4.87,0,6.51,1.34,6.56,6.1q.2,19.68-.08,39.36c0,1.48-1.19,4-2.18,4.18-1.66.31-4.27-.32-5.26-1.54a38.62,38.62,0,0,1-4.62-8.46C310.31,61,308.16,54.1,304.58,48c-5.73-9.66-20.53-13.65-30.94-9.24-2.57,1.09-4.05,2.84-4.06,5.68,0,17.87,0,35.74-.07,53.61,0,2.39,1.18,3.69,3.3,3.63a95.83,95.83,0,0,0,13.72-1.09c4.32-.77,6.7-4.13,8-8.16,1.09-3.45,2-7,3-10.42.61-2.09,1.9-4.06,4.18-3.23,1.47.53,3.28,2.54,3.37,4,.31,5-.19,10-.17,15,0,9.73.24,19.46.37,29.19,0,2.12.17,4.25,0,6.36s-.84,4.71-3.49,4.42a6.23,6.23,0,0,1-4.18-3.3c-1.45-3.42-1.84-7.29-3.3-10.7s-3.09-7.41-5.85-9.69c-4.88-4-11.1-2.85-16.88-1.7-.85.17-2,2-2,3-.08,20-.09,40,.08,60,0,5,3.15,8.2,8.41,9,17.71,2.7,29.75-2.72,35.9-19.24,1.65-4.43,2.93-9,4.37-13.52.53-1.66,1-3.34,1.61-5,1-2.77,2.57-5,5.93-4.67,3.56.35,3.4,3.51,3.44,5.76.22,13.86.3,27.73.14,41.59,0,4.06-2.12,5.31-7,5.23-10.74-.17-21.49-.58-32.23-.54-24.61.09-49.22.47-73.82.55-13.73,0-27.47-.29-41.2-.37-3.12,0-6.24.23-9.35.49-5.07.44-8.89-1.65-11.1-6-2.91-5.79-5.58-11.71-8-17.72-7.5-18.63-14.78-37.35-22.25-56-3.06-7.63-7.47-10.06-15.54-9.13-2.81.33-4.29,1.6-4.29,4.57,0,20.5-.08,41,.1,61.49.06,7.29,3.44,10.91,10.48,12.58,1.94.46,4.12.68,5.67,1.75s3.09,3.08,2.94,4.5-2.47,3.38-3.93,3.47c-5.58.34-11.2-.09-16.81-.05-16.1.12-32.21.35-48.31.47a44.89,44.89,0,0,1-9.66-.59,5.19,5.19,0,0,1-3.29-3.65,5.35,5.35,0,0,1,2.67-4.19c2.82-1.22,6-1.65,9-2.32a9.18,9.18,0,0,0,7.69-8.11,42.86,42.86,0,0,0,.59-6.7q.05-71.8,0-143.6a46.19,46.19,0,0,0-.33-5.6c-.58-4.75-3.19-7.73-7.92-8.77-2.31-.51-4.66-.89-6.94-1.55S42.92,7.56,43.1,4.91s1.75-3.81,4-4.15a35.06,35.06,0,0,1,7.08-.5c25.1,1.53,50.19,1,75.3.07,15.61-.55,30.65,2.39,43.87,11.37,16.9,11.48,22.67,28,20.09,47.6-2.39,18.13-12.92,30.07-30,36.32C161.86,96.2,160.3,96.92,158.39,97.71ZM104.65,54.45q0,17,0,34.08c0,3.2.82,5.54,4.61,6,18,2.09,33.36-8.26,38.41-25.67,3.3-11.37,2.86-22.74.11-34C143.91,19,131.72,10.31,115.51,11.31c-8.52.53-10.81,2.87-10.85,11.3C104.61,33.23,104.64,43.84,104.65,54.45Z" class="cls-1"/>
  <path id="path18" d="M103.4,305.22c1.13.27,2.26.55,3.39.8,15.75,3.49,29,10.56,36.82,25.52,5.1,9.81,6.51,20.4,5.84,31.26-.75,12.23-4.12,23.66-12.24,33.13-10.33,12.06-24.17,17-39.53,17.57C87,413.93,76.22,413,65.49,413c-15.73,0-31.46.34-47.18.51-3.61,0-7.28.31-10.81-.22-1.53-.23-3.76-2.11-3.93-3.46a7,7,0,0,1,2.29-5.27c1.6-1.37,4-1.83,6.15-2.55,4.94-1.68,6.89-4.08,7.27-9.24.13-1.74.12-3.49.12-5.24q0-71,0-142.05c0-1.37-.05-2.75-.16-4.12-.5-6.41-3.61-9.43-10-9.75-1.75-.09-3.63.29-5.2-.26s-3.69-1.82-4-3.11A5.09,5.09,0,0,1,2.42,224,70.08,70.08,0,0,1,16,219.88a280.83,280.83,0,0,1,64.56-3.78c14.14.78,28.09,2.84,40.67,10.1,14.54,8.39,20.07,21.44,19.65,37.68-.52,20.06-13.51,32.23-31.39,38.3-2,.67-4,1.22-6,1.82Zm-41,48.49h.17c0,12-.25,24,.08,35.95.25,9,4.94,13.12,13.88,13,11-.11,18.1-6.14,21.79-15.9,6.93-18.3,7.31-36.81-.43-55C91.81,317.4,83,312.31,67.64,313.41c-4.31.31-5.2,1.21-5.21,5.47Q62.4,336.29,62.42,353.71Zm0-87.56c0,10.5.06,21,0,31.49,0,2.73.81,4.35,3.69,4.44,10.44.31,19.84-2.68,24.9-12.16,8.94-16.73,7.77-34.24.74-51.33C88.06,229.72,80.33,226,70.77,227c-6.17.64-8.31,2.93-8.33,9.18C62.39,246.16,62.42,256.15,62.42,266.15Z" class="cls-1"/>
  <path id="path20" d="M826.27,132.58c.12-1.33.34-2.66.34-4q0-37.69,0-75.37c0-2.12-.12-4.25-.24-6.37-.31-5.27-2.62-9.69-8.68-9.7a9,9,0,0,1-4.91-1.62c-1.13-.81-2.4-2.64-2.2-3.77a6.07,6.07,0,0,1,3.1-3.6c1.19-.61,2.92-.17,4.41-.17h26.16c1.12,0,2.41-.47,3.33-.06,1.64.71,3.82,1.61,4.41,3,1,2.39-.69,4.26-3,5.16a27.6,27.6,0,0,1-4.32,1.2c-5.54,1.12-7.4,3.13-7.89,8.75-.12,1.37-.07,2.75-.07,4.12q0,70.5,0,141c0,6.28-.43,6.71-6.83,6.9-1.37,0-2.75,0-4.12.07-4.49.21-7.53-1.77-9.62-5.76-6.44-12.26-13-24.45-19.55-36.68Q772.24,110.07,748,64.44a7.25,7.25,0,0,0-1.42-2.18,3.25,3.25,0,0,0-2.24-.79c-.46.06-1,1-1.14,1.67A17,17,0,0,0,743,66.5c0,32.12,0,64.25.06,96.37A108.16,108.16,0,0,0,744.18,177c.72,5.33,3.82,8.5,9.4,9,1.73.16,3.75.19,5.06,1.11a7.46,7.46,0,0,1,2.83,4.48c.12.71-2.26,1.85-3.55,2.74a2.13,2.13,0,0,1-1.11.11c-18-.1-35.93-.25-53.9-.3-12.86,0-25.71.14-38.57.07-2.64,0-6.32,1-6.82-3.25-.46-4,2.73-4.83,5.71-5.67,5.77-1.62,7.26-3.79,5.78-9.57-2.66-10.39-5.63-20.71-8.42-31.07-1-3.66-3.15-5.3-7.06-5.23-8.5.17-17,.08-25.5,0-2.72,0-5.17.51-5.91,3.46-2.64,10.52-5.49,21-7.54,31.63-1.24,6.43,1.11,9,7.58,10.72,1.56.43,3.44.51,4.58,1.47a8.16,8.16,0,0,1,2.81,4.57c.35,2.37-1.75,3-3.79,3.07-.62,0-1.25,0-1.87,0-9.85,0-19.7-.09-29.55-.06-2.26,0-4.39,0-5-2.72a4.12,4.12,0,0,1,3-5.29c7.45-1.91,9.38-7.81,11-14.15q14.92-57,29.89-114,3.21-12.3,6-24.71c.88-3.95,3.14-5.79,7-5.85,3.24-.05,6.49-.11,9.73-.06,4,.06,6.26,2.06,7.42,6q11.93,41,24.12,81.84,8.82,29.78,17.67,59.56c1.55,5.26,4.23,9.35,9.46,11.83,7.21,3.42,17.68-2.26,18.21-10.23.11-1.62.11-3.25.11-4.87q0-61.12,0-122.24a40.43,40.43,0,0,0-.18-4.86c-.56-4.64-2.11-6.24-6.72-7.19-1.47-.3-3.19-.23-4.33-1-1.37-.94-3.11-2.6-3.11-3.95s1.7-3.46,3.08-3.9c2.41-.77,5.15-.65,7.75-.67,10.86-.06,21.73.23,32.57-.15,4.6-.16,7.09,1.5,9.13,5.38q24.43,46.38,49.1,92.64c1.35,2.54,3,4.9,4.54,7.35ZM640,130v.09c3.37,0,6.75.07,10.12,0,4.45-.12,5.53-1.25,4.38-5.52-4-14.68-8.12-29.31-12.32-43.93-.37-1.28-1.62-2.31-2.46-3.45-.91,1.19-2.32,2.26-2.64,3.6-3.73,15.13-7.26,30.31-10.92,45.46-.65,2.71.43,3.75,3,3.76C632.76,130,636.38,130,640,130Z" class="cls-1"/>
  <path id="path22" d="M453.14,364.73c0,9.5,0,19,0,28.49,0,7,.89,8.23,7.4,10.85.92.37,2.23.57,2.64,1.27.95,1.6,2.07,3.52,1.9,5.18-.11,1.07-2.31,2.53-3.72,2.73-2.81.39-5.72,0-8.59,0q-20.41.06-40.81.16c-2,0-4,.06-6,0-2.59-.05-4.19-1.72-4-4a7.3,7.3,0,0,1,2.66-4.74c1.49-1.11,3.71-1.28,5.64-1.78A7.09,7.09,0,0,0,416,396c.14-1.87.24-3.74.24-5.61,0-40.74-.12-81.48.16-122.21,0-7.14-2-11.76-9-13.76-2.12-.6-4.08-1.43-3.66-4.3.46-3.11,2.91-3.2,5.11-3.18,5.12,0,10.24.54,15.35.51,10.61,0,21.21-.34,31.82-.48,2.23,0,4.59-.19,6.65.47a5.19,5.19,0,0,1,3.1,3.46c.15,1.33-1.14,3-2.18,4.22-.65.75-2,.95-3.05,1.31-6.45,2.18-7.42,3.4-7.45,10.26-.06,15.62,0,31.24,0,46.86,0,.5.08,1,.07,1.5-.07,3,1.51,4.22,4.43,4.2,10.62,0,21.24-.09,31.86,0,2.93,0,4.07-1.17,4-4,0-4.87,0-9.75,0-14.62q0-17.62,0-35.24c0-6.27-.85-7.4-6.77-9.6-.58-.22-1.17-.43-1.76-.62-2.21-.69-4.46-1.37-3.92-4.46.51-2.94,2.75-3.82,5.24-3.8,5.12,0,10.23.56,15.35.54,11.11,0,22.22-.29,33.33-.44,2.11,0,4.39-.41,6.28.27a5.86,5.86,0,0,1,3.33,3.77c.21,1.25-1.08,3.34-2.31,4.12-1.71,1.08-4,1.37-6,1.86-3.61.86-5.64,3-5.83,6.78-.08,1.5-.13,3-.13,4.49q0,61.29,0,122.59c0,9.49,1.16,11.18,10,14.73,2.1.84,4.51,1.63,4.14,4.52-.4,3.15-3.07,3.34-5.46,3.27-6.87-.21-13.73-.86-20.59-.83-9.61,0-19.22.54-28.83.82-1.24,0-2.73.35-3.69-.19-1.67-.94-3.81-2.23-4.23-3.79-.31-1.17,1.77-3,2.8-4.5a.53.53,0,0,1,.34-.15c8-1.24,8.85-6.8,8.78-13.51-.21-18.74-.08-37.49-.1-56.23,0-5.88-.26-6.13-6-6.13-9.75,0-19.5.12-29.24-.05-3.77-.07-5.15,1.45-5.12,5.07C453.2,344.24,453.15,354.49,453.14,364.73Z" class="cls-1"/>
  <path id="path24" d="M683.51,417.28c-19-.19-34.71-4.54-47.64-16.39-19.74-18.08-21.24-49.62,2.41-67.09,6.19-4.57,13.07-8.24,19.77-12.07,4.86-2.78,4.93-3.32.65-6.69-6.56-5.17-13.37-10.13-19.27-16-18.74-18.56-14.89-50.46,2.38-66.44,10.41-9.63,23-14.67,37-16.18,15.49-1.68,30.37.12,44.15,8.1,14.72,8.52,22.32,23.79,19.37,39.7-1.89,10.22-8.56,17-17,22.19-4.77,3-9.8,5.49-14.68,8.28-4.6,2.63-4.52,3.25-.11,6,6.34,4,12.7,8,18.8,12.29,11.62,8.26,18.41,19.68,19.94,33.8,2,18.06-1.33,34.89-13.88,48.9-10.54,11.77-24.16,17.82-39.48,20.33C691.19,416.81,686.43,417,683.51,417.28Zm30.25-46c-.27-7.41-2-14.22-6.23-20.23-7-9.89-16.8-16.24-27.16-21.88-6.89-3.75-9.47-3.23-15.33,2.18-16.53,15.27-20,43-7.68,61.81,8.9,13.66,29.08,17.59,42.3,8C709.85,393.87,713.05,383.07,713.76,371.32ZM661.7,252.16l-1,.35c1.65,4.76,2.66,9.88,5.09,14.2,5.49,9.77,14.35,16.16,24.1,21.24,6.16,3.21,8.79,2.63,13.45-2.66,10.51-11.93,13.6-25.59,8.74-40.77-4.25-13.27-16.22-19.91-30.84-17.44C669.29,229.1,661.66,238.89,661.7,252.16Z" class="cls-2"/>
  <path id="path26" d="M3.77,444.75c.23-3.9.29-7.87.85-11.78.11-.79,2.09-1.86,3.23-1.88,7.25-.16,14.5-.07,21.74-.06q146.79.27,293.58.52,198.72.24,397.43.3c53,0,106-.5,159-.77h5.23c-.47,4.54-.75,8.71-1.46,12.8-.11.64-2.15,1.34-3.29,1.34q-39.18,0-78.36-.13-104.42-.28-208.84-.55-74.24-.17-148.48-.22-137.79-.16-275.58-.26c-49.12,0-98.23.44-147.34.67C15.84,444.77,10.23,444.75,3.77,444.75Z" class="cls-2"/>
  <path id="path28" d="M547.28,153.43c0-6.37.06-12.75,0-19.12-.12-9.63-2.31-12.27-11.68-14.39-.24-.05-.59,0-.73-.11-1.18-1.21-3.27-2.51-3.21-3.69s2.07-3.46,3.33-3.53c6-.33,11.95,0,17.92,0,10.73-.09,21.46-.3,32.19-.41a30.2,30.2,0,0,1,7.42.36c1.32.33,3.09,2,3.2,3.22s-1.5,2.67-2.55,3.83c-.43.47-1.4.44-2.1.67-6.3,2.09-7.91,4.23-7.93,11,0,14.74-.11,29.49,0,44.23a13.22,13.22,0,0,1-6.26,12,53.15,53.15,0,0,1-25.55,8.78c-7.32.55-14.72,1.48-22,.94-24.77-1.82-43.06-14.05-54.24-36.21-11.39-22.57-12.4-46.5-7.77-70.89,3.41-18,11-33.9,24.46-46.59C503.93,32.07,518.52,26.15,535,25c12.67-.89,25.17,0,37.26,4.51,4.07,1.52,6.23,4.19,6.27,8.32.13,11.49.18,23-.08,34.46a6.61,6.61,0,0,1-3.08,4.85c-2.49,1.22-4.63-.67-5.71-2.93-2.62-5.51-4.78-11.26-7.52-16.7C559.28,51.84,556.49,46,552.71,41c-5.84-7.76-15.57-9-23.78-3.67-8,5.13-12.29,13-15.37,21.56-6.51,18.14-7.78,37-7.68,56.1.09,16.89.73,33.79,6.11,50a63.06,63.06,0,0,0,8.24,15.78c3.69,5.29,9.45,7.58,16,7.45,5.29-.11,8.4-2.1,9.56-7.21a76.78,76.78,0,0,0,1.45-13.31c.23-4.74.05-9.49.05-14.24Z" class="cls-1"/>
  <path id="path30" d="M862.63,196.3a46.06,46.06,0,0,1-2.62,5.31q-23,34.65-46,69.25c-12.13,18.32-24.35,36.58-36.14,55.12-5.26,8.27-4.11,9.77,5.64,9.77h30c7.73,0,8.38-.61,8.4-8.24,0-15,.15-30,0-45-.06-4.64,1.57-7.52,5.84-9.31,9.66-4,19.22-8.36,28.88-12.39,4.71-2,5.47-1.35,5.48,3.71q0,32.43,0,64.87c0,5.71.5,6.23,6.16,6.3,5,.06,10,.12,15,0,2.69-.05,3.93,1.25,4.13,3.74a44.53,44.53,0,0,1,.06,4.49c-.07,3.32-1.47,4.92-5.12,4.71-5-.28-10-.11-15-.05-4.09,0-5.22,1.08-5.23,5.07,0,12.5-.1,25,0,37.5.07,6.36,2.35,8.94,8.61,10.39,2.91.68,5.87,1.17,8.79,1.82,2.52.56,3.84,2,3.74,4.77s-1.45,4.54-4.16,4.92a39.69,39.69,0,0,1-8.19.55c-20.35-1.43-40.68-1.84-61,0a20,20,0,0,1-8.13-.71,6.43,6.43,0,0,1-3.61-4.37c-.18-1.39,1.44-3.89,2.84-4.45a37.57,37.57,0,0,1,9.47-2c6.42-.74,9.57-3.19,10.65-9.56a79.93,79.93,0,0,0,.8-12.3c.11-8.87.07-17.75,0-26.62,0-4.28-.8-5-5.09-5-17.12,0-34.25-.13-51.37.08-3.95,0-5.1-1.54-5.75-5.05-1.58-8.59,2.53-15.23,6.85-21.88Q801.79,267.6,837,213.44c2.25-3.45,4.58-6.85,6.89-10.26C849,195.72,853,194.2,862.63,196.3Z" class="cls-2"/>
  <path id="path32" d="M382.18,271c0,5,.08,10,0,15-.06,2.61-.76,5-3.85,5.65-3.32.68-4.81-1.46-5.81-4.06-2.06-5.36-3.71-10.9-6.12-16.08a52.47,52.47,0,0,0-7.25-11.69,18.18,18.18,0,0,0-21.51-4.71c-6.95,3.18-10.68,10.93-10,19.3,1,12.69,8.38,21.34,17.78,28.66,8.86,6.91,18.16,13.27,26.94,20.27,9.41,7.5,16.41,16.92,18.68,29,5,26.53-6.48,49.51-32.58,59.29-19.1,7.16-38.48,5.92-57.79.64-6.12-1.68-10.28-5.52-10.51-12.08-.41-12-.45-23.94-.42-35.92,0-2.81.34-6.1,4.21-6.51s5.93,2.26,7.12,5.46c2.12,5.73,3.79,11.64,6.07,17.3a90.65,90.65,0,0,0,7.26,15.12c6.19,9.65,15.39,13.11,25.07,10.19,9.33-2.81,16.13-12.27,16.5-22.77.44-12.29-4.68-22.18-13.69-29.93s-18.6-14.71-27.82-22.17c-8.23-6.66-15.34-14.21-19.51-24.24-9.25-22.25-1-44.85,20.75-55.67,20.76-10.33,41.84-8.25,63-1.09,3,1,3.33,3.57,3.4,6.08.14,5,0,10,0,15Z" class="cls-1"/>
  <path id="path34" d="M176.7.13c15.17,0,30.16,0,45.14,0Q270,.2,318.19.29q225.5.18,451,.31c25.74,0,51.48-.24,77.22-.6,3.91-.05,4.91,1.47,5.14,4.92.63,9.47.69,9.51-8.57,9.5q-301-.13-602.09-.25c-14.37,0-28.74.22-43.11.1A11.05,11.05,0,0,1,191.86,12C186.78,8.29,181.93,4.26,176.7.13Z" class="cls-2"/>
  <path id="path36" d="M166,322.23q0-27.18,0-54.36a40,40,0,0,0-.57-6.33,6,6,0,0,0-5.13-5.24c-1.83-.38-3.84-.49-5.4-1.36-1.3-.72-2.87-2.4-2.85-3.64s1.59-3,2.9-3.64a11.6,11.6,0,0,1,5.11-.75q26.4-.08,52.79,0c1.61,0,3.43-.16,4.77.51s3,2.23,3.08,3.5a5.05,5.05,0,0,1-2.53,3.88,32.94,32.94,0,0,1-7.9,2.16c-4.31.81-6.52,3.41-7,7.6a44.48,44.48,0,0,0-.3,5.23c0,34.24-.07,68.48,0,102.71a73.48,73.48,0,0,0,1.34,14.5c2.49,12.08,11.32,19.4,23.69,20.21,19.82,1.31,32.56-9.56,34.23-29.29.36-4.22.51-8.48.52-12.72q.07-45,0-90a74.5,74.5,0,0,0-.58-9.33c-.73-5.73-3.69-8.57-9.44-9.46-1.48-.23-3.27-.09-4.34-.89-1.41-1-3.17-2.91-3.08-4.33s2.05-3,3.57-4c1-.62,2.66-.2,4-.2,9.22,0,18.44.06,27.66.07,1.25,0,2.69-.55,3.69-.08,1.4.66,3.18,1.85,3.49,3.13s-.63,3.24-1.56,4.51c-.64.86-2.15,1.28-3.35,1.49-8.61,1.54-9.91,3.73-10,13.32-.2,14.74,0,29.49-.05,44.23,0,19,.1,38-.17,57-.13,9.69-1.93,19.07-7.37,27.46-6.5,10-16.1,15.14-27.45,17.1-15,2.58-29.9,2.27-44.34-2.93-17-6.1-27.07-17.18-27.31-36.11-.23-18,0-36,0-54Z" class="cls-1"/>
  <path id="path38" d="M386.37,139.54c-4.37,0-8.75.07-13.12,0-2.86-.06-4.93.91-5.64,3.8-2.58,10.52-5.37,21-7.54,31.62-1.14,5.57,1.45,8.7,6.91,10.22,1.92.54,4.17.64,5.66,1.76a6.71,6.71,0,0,1,2.41,4.71c0,.91-2.23,2.23-3.67,2.66s-3.21,0-4.83,0c-7.47,0-14.94,0-22.41,0-2.19,0-4.77.56-5.49-2.52s1.13-4.41,3.49-5.83c1.63-1,3.45-2.69,3.9-4.42q19.14-72,37.93-144c2.47-9.46,2.37-9.7,12.05-10.13a35.26,35.26,0,0,1,3.74,0c6.69.41,7.76,1.23,9.67,7.69q20.5,69.23,40.92,138.48c1.86,6.32,4.75,11.39,11.21,14,1.31.53,2,2.71,2.9,4.12-1.48.9-2.91,2.48-4.44,2.59-4.34.31-8.73,0-13.1,0-10.73,0-21.46.12-32.19.16a41.51,41.51,0,0,1-7.84-.23c-1.39-.26-3.48-1.73-3.57-2.81a6.41,6.41,0,0,1,2.18-4.59c1.2-1.06,3.21-1.19,4.85-1.77,3.83-1.34,5.54-3.61,4.58-7.41-2.88-11.36-6-22.64-9.16-33.94-.81-2.93-2.88-4.15-5.92-4.08C395.37,139.61,390.87,139.54,386.37,139.54Zm-.78-9.51c3.62,0,7.25,0,10.87,0,3.14,0,4.79-1.38,3.86-4.7-4.24-15.12-8.48-30.25-12.84-45.33-.31-1.08-1.63-1.86-2.48-2.78-.72.94-1.81,1.77-2.11,2.83-1.18,4.2-2.12,8.46-3.13,12.71-2.61,10.91-5.15,21.83-7.84,32.72-.81,3.27.12,4.7,3.56,4.58S382.22,130,385.59,130Z" class="cls-1"/>
  <path id="path40" d="M132.78,215.53c7.2,0,14.65-.08,22.1,0,17,.21,34,.6,51,.71,12.69.09,25.39-.2,38.08-.22,17,0,33.92-.09,50.88.11,5.43.06,10.76.61,16.28.21,9-.67,18.19.4,27.29.42,8.23,0,16.46-.67,24.68-.54,12.05.19,24.16,1.68,36.12.87,5.1-.35,10.32-.84,15.45-.9,20.83-.24,41.66-.15,62.49-.19,12.23,0,24.52-.77,36.68.12,11.9.87,23.7-.16,35.54,0,5.39.07,10.78-.63,16.18-1l-6.23,14.24c-12.38,0-24.91,0-37.44,0-3.1,0-6.2.56-9.29.53-11.21-.12-22.41-.48-33.62-.56-5.1,0-10.2.49-15.3.53q-16.06.12-32.13,0c-9.56-.09-19.11-.49-28.67-.5-7.1,0-14.21.54-21.31.57-15.7.07-31.39,0-47.09-.05-7.7,0-15.41,0-23.11.06l-25.56,0h-46.7c-8.08,0-16.15.08-24.23,0-9.8-.14-19.59-.63-29.39-.62-11.35,0-22.7.31-34,.69-3.07.1-5-1-7-3.21C140.76,222.93,136.77,219.38,132.78,215.53Z" class="cls-2"/>
  <path id="path42" d="M617.16,241.1c-.44,17.55-5.89,29.55-13.48,40.53-4.29,6.21-9.67,11.71-14.78,17.32a22.8,22.8,0,0,1-5.82,4c-2.14,1.21-4.8,1.41-5.9-1a6.71,6.71,0,0,1,.71-5.66c3.24-4.57,7.39-8.52,10.41-13.2a78.55,78.55,0,0,0,7.87-15.55c1.86-5.11,0-7.88-5.07-9.93a82.07,82.07,0,0,1-8.26-3.45c-6.38-3.46-9-9.27-8.7-16.22a40.5,40.5,0,0,1,2-10.41c2.25-7.21,9.84-11.92,17.4-11.52C609.46,216.9,617.63,229.14,617.16,241.1Z" class="cls-2"/>
  <text id="text51" y="114.62219" x="-397.40726" style="font-weight:bold;font-size:196.433px;line-height:1.25;font-family:'ITC Garamond Book';-inkscape-font-specification:'ITC Garamond Book,  Bold';stroke-width:4.91083;font-style:normal;font-stretch:normal;font-variant:normal;" xml:space="preserve"><tspan style="stroke-width:4.91083;-inkscape-font-specification:'ITC Garamond Book,  Bold';font-family:'ITC Garamond Book';font-weight:bold;font-style:normal;font-stretch:normal;font-variant:normal;" y="114.62219" x="-397.40726" id="tspan49" sodipodi:role="line"/></text>
  <text id="text55" y="166.87811" x="-626.27026" style="font-style:normal;font-variant:normal;font-weight:bold;font-stretch:semi-condensed;font-size:274.317px;line-height:1.25;font-family:'ITC Garamond Std';-inkscape-font-specification:'ITC Garamond Std Bold Semi-Condensed';stroke-width:6.85792" xml:space="preserve"><tspan style="font-style:normal;font-variant:normal;font-weight:bold;font-stretch:semi-condensed;font-family:'ITC Garamond Std';-inkscape-font-specification:'ITC Garamond Std Bold Semi-Condensed';stroke-width:6.85792" y="166.87811" x="-626.27026" id="tspan53" sodipodi:role="line"/></text>
</svg>